<svg width="18" height="18" viewBox="0 0 18 18" fill="none" xmlns="http://www.w3.org/2000/svg">
<path fill-rule="evenodd" clip-rule="evenodd" d="M4.45786 2.0472C4.39492 1.98427 4.29288 1.98427 4.22994 2.0472L2.83879 3.43835C1.99481 4.28233 1.76289 5.5613 2.25679 6.64788C4.08935 10.6795 7.32052 13.9107 11.3521 15.7432C12.4387 16.2371 13.7177 16.0052 14.5617 15.1612L15.9528 13.7701C16.0158 13.7072 16.0158 13.6051 15.9528 13.5422L14.0814 11.6708C14.0324 11.6217 13.9574 11.6095 13.8954 11.6406L12.8568 12.1599C11.5777 12.7994 10.0329 12.5487 9.02176 11.5375L6.46252 8.97827C5.45133 7.96709 5.20064 6.42229 5.84018 5.14323L6.35947 4.10466C6.39049 4.04261 6.37833 3.96767 6.32928 3.91862L4.45786 2.0472ZM2.81572 0.632991C3.65971 -0.210997 5.02809 -0.210997 5.87208 0.632991L7.74349 2.5044C8.40126 3.16218 8.56433 4.16706 8.14832 4.99908L7.62903 6.03766C7.37449 6.54674 7.47426 7.16159 7.87673 7.56406L10.436 10.1233C10.8384 10.5258 11.4533 10.6255 11.9624 10.371L13.0009 9.85171C13.833 9.4357 14.8379 9.59877 15.4956 10.2565L17.367 12.128C18.211 12.9719 18.211 14.3403 17.367 15.1843L15.9759 16.5755C14.5424 18.0089 12.3701 18.4029 10.5245 17.564C6.0527 15.5313 2.46871 11.9473 0.436058 7.47549C-0.402825 5.62995 -0.00890672 3.45762 1.42457 2.02414L2.81572 0.632991Z" fill="black"/>
</svg>
