<svg width="24" height="24" viewBox="0 0 24 24" fill="none" xmlns="http://www.w3.org/2000/svg">
<path fill-rule="evenodd" clip-rule="evenodd" d="M12 4C16.4183 4 20 7.58172 20 12C20 13.2682 19.7056 14.4648 19.1824 15.5278C19.0384 15.8203 18.9863 16.162 19.0559 16.5014L19.7213 19.7434L16.3485 19.1123C16.025 19.0518 15.7011 19.1012 15.4212 19.2339C14.3851 19.7249 13.2261 20 12 20C7.58172 20 4 16.4183 4 12C4 7.58172 7.58172 4 12 4ZM22 12C22 6.47715 17.5228 2 12 2C6.47715 2 2 6.47715 2 12C2 17.5228 6.47715 22 12 22C13.473 22 14.874 21.6809 16.1356 21.1072L20.0848 21.8461C21.1322 22.0421 22.0442 21.114 21.83 20.0701L21.0485 16.2622C21.6591 14.9681 22 13.5225 22 12Z" fill="black"/>
<path fill-rule="evenodd" clip-rule="evenodd" d="M5 12C5 10.8954 5.89543 10 7 10C8.10457 10 9 10.8954 9 12C9 13.1046 8.10457 14 7 14C5.89543 14 5 13.1046 5 12Z" fill="black"/>
<path fill-rule="evenodd" clip-rule="evenodd" d="M10 12C10 10.8954 10.8954 10 12 10C13.1046 10 14 10.8954 14 12C14 13.1046 13.1046 14 12 14C10.8954 14 10 13.1046 10 12Z" fill="black"/>
<path fill-rule="evenodd" clip-rule="evenodd" d="M15 12C15 10.8954 15.8954 10 17 10C18.1046 10 19 10.8954 19 12C19 13.1046 18.1046 14 17 14C15.8954 14 15 13.1046 15 12Z" fill="black"/>
</svg>
