<svg width="24" height="24" viewBox="0 0 24 24" fill="none" xmlns="http://www.w3.org/2000/svg">
<path fill-rule="evenodd" clip-rule="evenodd" d="M12.6508 4.8749C12.2763 4.55391 11.7237 4.55391 11.3492 4.8749L6.34921 9.16061C6.12756 9.35059 6 9.62794 6 9.91987V19C6 19.5523 6.44772 20 7 20H17C17.5523 20 18 19.5523 18 19V9.91987C18 9.62794 17.8724 9.35059 17.6508 9.16061L12.6508 4.8749ZM10.0476 3.35639C11.1711 2.39341 12.8289 2.39341 13.9524 3.35639L18.9524 7.6421C19.6173 8.21205 20 9.04409 20 9.91987V19C20 20.6569 18.6569 22 17 22H7C5.34315 22 4 20.6569 4 19V9.91987C4 9.04409 4.38269 8.21205 5.04763 7.6421L10.0476 3.35639Z" fill="black"/>
<path fill-rule="evenodd" clip-rule="evenodd" d="M12.6441 4.84971C12.2719 4.53626 11.7281 4.53626 11.3558 4.84971L3.14411 11.7649L1.85583 10.235L10.0676 3.31989C11.1842 2.37954 12.8157 2.37953 13.9324 3.31989L22.1441 10.235L20.8558 11.7649L12.6441 4.84971Z" fill="black"/>
<path fill-rule="evenodd" clip-rule="evenodd" d="M11.5 14C10.9477 14 10.5 14.4477 10.5 15V19H8.5V15C8.5 13.3431 9.84315 12 11.5 12H12.5C14.1569 12 15.5 13.3431 15.5 15V19H13.5V15C13.5 14.4477 13.0523 14 12.5 14H11.5Z" fill="black"/>
</svg>
