<svg width="16" height="20" viewBox="0 0 16 20" fill="none" xmlns="http://www.w3.org/2000/svg">
<path fill-rule="evenodd" clip-rule="evenodd" d="M3.73062 3.52893C2.68822 4.49664 2 5.95275 2 7.92763C2 9.21658 2.76018 10.8912 3.91015 12.6267C5.03167 14.3192 6.4086 15.9015 7.40541 16.9671C7.73561 17.32 8.26439 17.32 8.59459 16.9671C9.5914 15.9015 10.9683 14.3192 12.0898 12.6267C13.2398 10.8912 14 9.21658 14 7.92763C14 5.95275 13.3118 4.49664 12.2694 3.52893C11.2159 2.55098 9.72218 2 8 2C6.27782 2 4.78405 2.55098 3.73062 3.52893ZM2.36989 2.06319C3.84995 0.689167 5.85619 0 8 0C10.1438 0 12.15 0.689167 13.6301 2.06319C15.1212 3.44746 16 5.45517 16 7.92763C16 9.84825 14.9373 11.9503 13.757 13.7314C12.5483 15.5555 11.0877 17.2297 10.0551 18.3334C8.93451 19.5313 7.06548 19.5313 5.94488 18.3334C4.91232 17.2297 3.45167 15.5555 2.24296 13.7314C1.06271 11.9503 0 9.84825 0 7.92763C0 5.45517 0.878779 3.44746 2.36989 2.06319Z" fill="black"/>
<path fill-rule="evenodd" clip-rule="evenodd" d="M8 5C6.89543 5 6 5.89543 6 7C6 8.10457 6.89543 9 8 9C9.10457 9 10 8.10457 10 7C10 5.89543 9.10457 5 8 5ZM4 7C4 4.79086 5.79086 3 8 3C10.2091 3 12 4.79086 12 7C12 9.20914 10.2091 11 8 11C5.79086 11 4 9.20914 4 7Z" fill="black"/>
</svg>
