<svg width="22" height="22" viewBox="0 0 22 22" fill="none" xmlns="http://www.w3.org/2000/svg">
<path fill-rule="evenodd" clip-rule="evenodd" d="M21.7071 0.292922C21.9963 0.582062 22.0802 1.01811 21.9192 1.39395L13.3477 21.3939C13.1842 21.7756 12.8018 22.0164 12.387 21.9992C11.9722 21.9819 11.6112 21.7101 11.4799 21.3163L8.78086 13.2192L0.683778 10.5201C0.289903 10.3889 0.0181238 10.0278 0.000869481 9.61302C-0.0163848 9.1982 0.224476 8.81586 0.606086 8.65231L20.6061 0.0808842C20.9819 -0.0801912 21.418 0.00378326 21.7071 0.292922ZM3.81146 9.45452L9.88766 11.4799C10.1863 11.5795 10.4206 11.8138 10.5201 12.1124L12.5455 18.1886L19.0961 2.90397L3.81146 9.45452Z" fill="black"/>
<path fill-rule="evenodd" clip-rule="evenodd" d="M21.2071 2.20718L10.2071 13.2072L8.79291 11.793L19.7929 0.792969L21.2071 2.20718Z" fill="black"/>
</svg>
