<?xml version="1.0" encoding="UTF-8"?>
<svg xmlns="http://www.w3.org/2000/svg" id="Layer_1" data-name="Layer 1" viewBox="0 0 24 24">
  <path d="m19.5,1H4.5C2.019,1,0,3.019,0,5.5v13c0,2.481,2.019,4.5,4.5,4.5h15c2.481,0,4.5-2.019,4.5-4.5V5.5c0-2.481-2.019-4.5-4.5-4.5Zm-15,1h15c1.93,0,3.5,1.57,3.5,3.5v2.5H1v-2.5c0-1.93,1.57-3.5,3.5-3.5Zm15,20H4.5c-1.93,0-3.5-1.57-3.5-3.5v-9.5h22v9.5c0,1.93-1.57,3.5-3.5,3.5ZM3,5c0-.552.448-1,1-1s1,.448,1,1-.448,1-1,1-1-.448-1-1Zm3,0c0-.552.448-1,1-1s1,.448,1,1-.448,1-1,1-1-.448-1-1Zm3,0c0-.552.448-1,1-1s1,.448,1,1-.448,1-1,1-1-.448-1-1Zm8,7.5v7c0,.276-.224.5-.5.5s-.5-.224-.5-.5v-7c0-.276.224-.5.5-.5s.5.224.5.5Zm-4,0v4.5c0,1.654-1.346,3-3,3s-3-1.346-3-3v-4.5c0-.276.224-.5.5-.5s.5.224.5.5v4.5c0,1.103.897,2,2,2s2-.897,2-2v-4.5c0-.276.224-.5.5-.5s.5.224.5.5Z"/>
</svg>
